<svg viewBox="0 0 48 48" xml:space="preserve" xmlns="http://www.w3.org/2000/svg"><path d="M24.042 30c-7.145 0-12.958-6.729-12.958-15S16.896 0 24.042 0C31.187 0 37 6.729 37 15s-5.813 15-12.958 15zm0-28C18 2 13.084 7.832 13.084 15S18 28 24.042 28 35 22.168 35 15 30.084 2 24.042 2z" fill="#a4abab" class="fill-000000"></path><path d="M47.982 48H.019v-6.771a7.013 7.013 0 0 1 4.645-6.592L17 31.238v-4.155h2v5.679l-13.735 3.78c-1.913.687-3.247 2.579-3.247 4.687V46h43.964v-4.771c0-2.107-1.333-4-3.319-4.709L29 32.762v-5.637h2v4.113l12.265 3.376c2.85 1.015 4.717 3.663 4.717 6.614V48zM32.799 13.218c-.068 0-.136-.001-.205-.004-2.251-.082-4.875-1.506-6.542-3.431-1.166 1.486-2.831 2.442-4.892 2.792-3.605.619-7.728-.765-8.982-1.982l1.393-1.436c.604.587 4.035 1.994 7.254 1.446 1.998-.339 3.438-1.366 4.28-3.051l.836-1.671.927 1.622c1.107 1.938 3.763 3.637 5.8 3.712.906.024 1.55-.247 1.961-.857l1.659 1.117c-.76 1.129-1.993 1.743-3.489 1.743z" fill="#a4abab" class="fill-000000"></path></svg>